<?xml version="1.0" encoding="UTF-8"?><svg id="Layer_2" xmlns="http://www.w3.org/2000/svg" viewBox="0 0 76.84 76.84"><defs><style>.cls-1{stroke:#0073cf;}.cls-1,.cls-2{fill:none;stroke-linejoin:round;stroke-width:2px;}.cls-2{stroke:#b4b4b4;}.cls-3{fill:#2b72b8;}</style></defs><g id="Layer_2-2"><path class="cls-1" d="M45.39,45.39V16c2.69.84,5.17,2.14,7.35,3.83l9.9-9.9c-6.53-5.56-14.99-8.92-24.21-8.92s-17.68,3.36-24.21,8.92l9.9,9.9c2.18-1.68,4.66-2.99,7.35-3.83v29.39h13.94Z"/><path class="cls-2" d="M57.56,24.86c2.73,3.84,4.35,8.51,4.35,13.56,0,12.95-10.54,23.49-23.49,23.49s-23.49-10.54-23.49-23.49c0-5.06,1.62-9.73,4.35-13.56l-9.94-9.94C4.14,21.35,1,29.52,1,38.42c0,20.63,16.79,37.42,37.42,37.42s37.42-16.79,37.42-37.42c0-8.9-3.14-17.08-8.35-23.51l-9.94,9.94Z"/><path class="cls-3" d="M64.5,75.2h-.57v-3.55h-1.3v-.5h3.16v.5h-1.3v3.55Z"/><path class="cls-3" d="M68.42,74.26h.01l1.19-3.11h.88v4.04h-.57v-3.38h-.01l-1.34,3.38h-.36l-1.34-3.38h-.01v3.38h-.55v-4.04h.88l1.21,3.11Z"/></g></svg>